<?xml version="1.0" encoding="UTF-8" standalone="no"?>
<!DOCTYPE svg PUBLIC "-//W3C//DTD SVG 1.1//EN"
 "http://www.w3.org/Graphics/SVG/1.1/DTD/svg11.dtd">
<!-- Generated by graphviz version 2.40.1 (20161225.0304)
 -->
<!-- Title: gocallvis Pages: 1 -->
<svg width="290pt" height="369pt"
 viewBox="0.00 0.00 290.20 369.00" xmlns="http://www.w3.org/2000/svg" xmlns:xlink="http://www.w3.org/1999/xlink">
<g id="graph0" class="graph" transform="scale(1 1) rotate(0) translate(0 369)">
<title>gocallvis</title>
<polygon fill="#d3d3d3" stroke="transparent" points="0,0 0,-369 290.2043,-369 290.2043,0 0,0"/>
<text text-anchor="middle" x="119.5" y="-7.8" font-family="Arial" font-size="14.00" fill="#000000">blitter.com/go/hkexsh/hkexpasswd</text>
<g id="clust1" class="cluster">
<title>cluster_focus</title>
<polygon fill="#e6ecfa" stroke="#000000" stroke-width=".5" points="8,-31 8,-361 282.2043,-361 282.2043,-31 8,-31"/>
<text text-anchor="middle" x="145.1021" y="-342.6" font-family="Arial" font-size="18.00" fill="#000000">main</text>
</g>
<g id="clust2" class="cluster">
<title>cluster_blitter.com/go/hkexsh</title>
<g id="a_clust2"><a xlink:href="/?f=blitter.com/go/hkexsh" xlink:title="package: blitter.com/go/hkexsh">
<polygon fill="#ffffe0" stroke="#000000" stroke-width=".8" points="135,-39 135,-117 274.2043,-117 274.2043,-39 135,-39"/>
<text text-anchor="middle" x="204.6021" y="-100.2" font-family="bold" font-size="16.00" fill="#000000">[hkexsh]</text>
</a>
</g>
</g>
<g id="clust3" class="cluster">
<title>cluster_github.com/jameskeane/bcrypt</title>
<g id="a_clust3"><a xlink:href="/?f=github.com/jameskeane/bcrypt" xlink:title="package: github.com/jameskeane/bcrypt">
<polygon fill="#ffffe0" stroke="#000000" stroke-width=".8" points="160.5512,-125 160.5512,-325 248.6531,-325 248.6531,-125 160.5512,-125"/>
<text text-anchor="middle" x="204.6021" y="-308.2" font-family="bold" font-size="16.00" fill="#000000">[bcrypt]</text>
</a>
</g>
</g>
<!-- blitter.com/go/hkexsh/hkexpasswd.main -->
<g id="node1" class="node">
<title>blitter.com/go/hkexsh/hkexpasswd.main</title>
<ellipse fill="#add8e6" stroke="#000000" stroke-width=".5" cx="43" cy="-181" rx="27" ry="18"/>
<text text-anchor="middle" x="43" y="-177.3" font-family="Verdana" font-size="14.00" fill="#000000">main</text>
</g>
<!-- blitter.com/go/hkexsh.ReadPassword -->
<g id="node2" class="node">
<title>blitter.com/go/hkexsh.ReadPassword</title>
<ellipse fill="#ffe4b5" stroke="#000000" stroke-width="1.5" cx="204.6021" cy="-65" rx="61.7044" ry="18"/>
<text text-anchor="middle" x="204.6021" y="-61.3" font-family="Verdana" font-size="14.00" fill="#000000">ReadPassword</text>
</g>
<!-- blitter.com/go/hkexsh/hkexpasswd.main&#45;&gt;blitter.com/go/hkexsh.ReadPassword -->
<g id="edge1" class="edge">
<title>blitter.com/go/hkexsh/hkexpasswd.main&#45;&gt;blitter.com/go/hkexsh.ReadPassword</title>
<path fill="none" stroke="#8b4513" d="M61.5378,-167.6933C88.7072,-148.1908 139.7077,-111.582 172.9013,-87.7553"/>
<polygon fill="#8b4513" stroke="#8b4513" points="175.2609,-90.3699 181.3437,-81.6952 171.1789,-84.6833 175.2609,-90.3699"/>
</g>
<!-- github.com/jameskeane/bcrypt.Salt -->
<g id="node3" class="node">
<title>github.com/jameskeane/bcrypt.Salt</title>
<ellipse fill="#ffe4b5" stroke="#000000" stroke-width="1.5" cx="204.6021" cy="-151" rx="27" ry="18"/>
<text text-anchor="middle" x="204.6021" y="-147.3" font-family="Verdana" font-size="14.00" fill="#000000">Salt</text>
</g>
<!-- blitter.com/go/hkexsh/hkexpasswd.main&#45;&gt;github.com/jameskeane/bcrypt.Salt -->
<g id="edge2" class="edge">
<title>blitter.com/go/hkexsh/hkexpasswd.main&#45;&gt;github.com/jameskeane/bcrypt.Salt</title>
<path fill="none" stroke="#8b4513" d="M69.3238,-176.1132C96.2853,-171.1081 138.3942,-163.2909 168.4668,-157.7082"/>
<polygon fill="#8b4513" stroke="#8b4513" points="169.3642,-161.1015 178.5573,-155.835 168.0865,-154.2191 169.3642,-161.1015"/>
</g>
<!-- github.com/jameskeane/bcrypt.Hash -->
<g id="node4" class="node">
<title>github.com/jameskeane/bcrypt.Hash</title>
<ellipse fill="#ffe4b5" stroke="#000000" stroke-width="1.5" cx="204.6021" cy="-212" rx="27" ry="18"/>
<text text-anchor="middle" x="204.6021" y="-208.3" font-family="Verdana" font-size="14.00" fill="#000000">Hash</text>
</g>
<!-- blitter.com/go/hkexsh/hkexpasswd.main&#45;&gt;github.com/jameskeane/bcrypt.Hash -->
<g id="edge3" class="edge">
<title>blitter.com/go/hkexsh/hkexpasswd.main&#45;&gt;github.com/jameskeane/bcrypt.Hash</title>
<path fill="none" stroke="#8b4513" d="M68.9642,-185.9807C95.8605,-191.1402 138.1056,-199.244 168.3013,-205.0364"/>
<polygon fill="#8b4513" stroke="#8b4513" points="167.9541,-208.5336 178.4345,-206.9803 169.2729,-201.6589 167.9541,-208.5336"/>
</g>
<!-- github.com/jameskeane/bcrypt.Match -->
<g id="node5" class="node">
<title>github.com/jameskeane/bcrypt.Match</title>
<ellipse fill="#ffe4b5" stroke="#000000" stroke-width="1.5" cx="204.6021" cy="-273" rx="28.102" ry="18"/>
<text text-anchor="middle" x="204.6021" y="-269.3" font-family="Verdana" font-size="14.00" fill="#000000">Match</text>
</g>
<!-- blitter.com/go/hkexsh/hkexpasswd.main&#45;&gt;github.com/jameskeane/bcrypt.Match -->
<g id="edge4" class="edge">
<title>blitter.com/go/hkexsh/hkexpasswd.main&#45;&gt;github.com/jameskeane/bcrypt.Match</title>
<path fill="none" stroke="#8b4513" d="M61.0401,-194.6349C79.1435,-207.9571 108.1242,-228.3184 135,-243 146.3672,-249.2097 159.2837,-255.0795 170.8773,-259.9528"/>
<polygon fill="#8b4513" stroke="#8b4513" points="169.6617,-263.2372 180.2417,-263.7975 172.3204,-256.7617 169.6617,-263.2372"/>
</g>
</g>
</svg>
